<?xml version="1.0" encoding="UTF-8" standalone="no"?>
<svg
   version="1.0"
   width="2000.0001pt"
   height="2000.0001pt"
   viewBox="0 0 2000.0001 2000.0001"
   preserveAspectRatio="xMidYMid"
   id="svg16"
   xmlns="http://www.w3.org/2000/svg"
   xmlnssvg="http://www.w3.org/2000/svg">
  <defs
     id="defs20" />
  <g
     transform="matrix(0.1,0,0,-0.1,0,2000)"
     fill="#000000"
     stroke="none"
     id="g14">
    <path
       d="M 5003,11283 C 2260,8315 14,5882 12,5878 c -2,-4 1504,-8 3347,-8 H 6710 V 4598 3325 h 3275 3275 v 1272 1273 l 3367,2 3367,3 -2935,3175 c -1613,1746 -3860,4178 -4992,5403 -1133,1225 -2063,2227 -2067,2227 -4,0 -2253,-2429 -4997,-5397 z m 6723,1962 c 946,-1023 2657,-2875 3803,-4115 l 2084,-2255 -2424,-3 -2424,-2 -252,-252 -253,-253 V 5343 4320 H 9980 7700 v 1023 1022 l -253,253 -252,252 -2404,2 -2405,3 3805,4117 c 2092,2264 3807,4116 3810,4115 4,-1 780,-839 1725,-1862 z"
       id="path12"
       style="fill:#ffffff" />
  </g>
</svg>
